<svg xmlns="http://www.w3.org/2000/svg" width="15.053" height="15.112" viewBox="0 0 15.053 15.112">
  <g id="add-friend" transform="translate(-1)">
    <path id="Path_1389" data-name="Path 1389" d="M16.053,9.357a3.1,3.1,0,0,0-5.4-2.075,6.667,6.667,0,0,0-1.025-.421,3.719,3.719,0,1,0-3.983,0A6.65,6.65,0,0,0,1,13.194v1.476a.443.443,0,0,0,.443.443h12.4a.443.443,0,0,0,.443-.443V13.194a6.632,6.632,0,0,0-.077-1A3.1,3.1,0,0,0,16.053,9.357Zm-2.459,2.119-.033.009a2.189,2.189,0,1,1,.033-.009Z" fill="#b2b2b2"/>
    <path id="Path_1390" data-name="Path 1390" d="M363.214,272.885h-.443v-.443a.443.443,0,1,0-.885,0v.443h-.443a.443.443,0,1,0,0,.885h.443v.443a.443.443,0,1,0,.885,0v-.443h.443a.443.443,0,1,0,0-.885Z" transform="translate(-349.374 -263.972)" fill="#b2b2b2"/>
  </g>
</svg>
