<svg xmlns="http://www.w3.org/2000/svg" width="15.618" height="15.619" viewBox="0 0 15.618 15.619">
  <g id="Group_1654" data-name="Group 1654" transform="translate(-3744.791 -744.739)">
    <path id="Path_1248" data-name="Path 1248" d="M3752.6,760.358a7.809,7.809,0,1,0-7.809-7.81A7.818,7.818,0,0,0,3752.6,760.358Zm0-14.745a6.935,6.935,0,1,1-6.935,6.935A6.944,6.944,0,0,1,3752.6,745.613Z" fill="#6f7170"/>
    <path id="Path_1249" data-name="Path 1249" d="M3753.163,750.2a.564.564,0,1,0-1.127,0v1.788h-1.788a.564.564,0,0,0,0,1.127h1.788V754.9a.564.564,0,1,0,1.127,0v-1.787h1.788a.564.564,0,1,0,0-1.127h-1.788Z" fill="#6f7170"/>
  </g>
</svg>
