<svg id="Group_2601" data-name="Group 2601" xmlns="http://www.w3.org/2000/svg" width="15.619" height="15.619" viewBox="0 0 15.619 15.619">
  <g id="Group_2092" data-name="Group 2092">
    <g id="Group_2091" data-name="Group 2091">
      <path id="Path_1503" data-name="Path 1503" d="M12.83,0H2.789A2.792,2.792,0,0,0,0,2.789V12.83a2.792,2.792,0,0,0,2.789,2.789H12.83a2.792,2.792,0,0,0,2.789-2.789V2.789A2.792,2.792,0,0,0,12.83,0ZM14.5,12.83A1.673,1.673,0,0,1,12.83,14.5H2.789A1.673,1.673,0,0,1,1.116,12.83V2.789A1.673,1.673,0,0,1,2.789,1.116H12.83A1.673,1.673,0,0,1,14.5,2.789Z" fill="#198080"/>
    </g>
  </g>
  <g id="Group_2094" data-name="Group 2094" transform="translate(4.462 4.463)">
    <g id="Group_2093" data-name="Group 2093">
      <path id="Path_1504" data-name="Path 1504" d="M142.669,139.322h-2.231v-2.231a.558.558,0,1,0-1.116,0v2.231h-2.231a.558.558,0,1,0,0,1.116h2.231v2.231a.558.558,0,1,0,1.116,0v-2.231h2.231a.558.558,0,1,0,0-1.116Z" transform="translate(-136.533 -136.533)" fill="#198080"/>
    </g>
  </g>
</svg>
