<svg xmlns="http://www.w3.org/2000/svg" width="13.573" height="17.122" viewBox="0 0 13.573 17.122">
  <g id="bell" transform="translate(-53.056)">
    <path id="Union_1" data-name="Union 1" d="M.581,12.177a.582.582,0,0,1,0-1.164h.5V5.623a5.623,5.623,0,0,1,11.246,0v5.39h.659a.582.582,0,0,1,0,1.164Z" transform="translate(53.056 2.386)" fill="#faaf3b"/>
    <g id="Group_1955" data-name="Group 1955" transform="translate(57.981)">
      <g id="Group_1954" data-name="Group 1954">
        <path id="Path_1393" data-name="Path 1393" d="M202.12,0A1.784,1.784,0,1,0,203.9,1.784,1.786,1.786,0,0,0,202.12,0Zm0,2.4a.62.62,0,1,1,.62-.62A.629.629,0,0,1,202.12,2.4Z" transform="translate(-200.336)" fill="#faaf3b"/>
      </g>
    </g>
    <g id="Group_1957" data-name="Group 1957" transform="translate(57.671 13.98)">
      <g id="Group_1956" data-name="Group 1956">
        <path id="Path_1394" data-name="Path 1394" d="M194.159,418.066v1.008a.97.97,0,0,1-1.939,0v-1.008h-1.163v1.008a2.133,2.133,0,0,0,4.266,0v-1.008Z" transform="translate(-191.057 -418.066)" fill="#faaf3b"/>
      </g>
    </g>
  </g>
</svg>
