<svg xmlns="http://www.w3.org/2000/svg" width="17.079" height="15.333" viewBox="0 0 17.079 15.333">
  <g id="Group_1655" data-name="Group 1655" transform="translate(-3771.836 -744.882)">
    <g id="Group_1436" data-name="Group 1436">
      <path id="Path_1250" data-name="Path 1250" d="M3786.526,760.215h-12.565a2.128,2.128,0,0,1-2.125-2.125v-8.025a2.392,2.392,0,0,1,2.39-2.389h2.217a.615.615,0,0,0,.615-.615,2.16,2.16,0,0,1,2.151-2.179h2.334a2.154,2.154,0,0,1,2.151,2.151.622.622,0,0,0,.614.643h2.218a2.391,2.391,0,0,1,2.389,2.389v7.76A2.392,2.392,0,0,1,3786.526,760.215Zm-12.3-11.535a1.387,1.387,0,0,0-1.386,1.385v8.025a1.122,1.122,0,0,0,1.121,1.121h12.565a1.388,1.388,0,0,0,1.386-1.386v-7.76a1.387,1.387,0,0,0-1.386-1.385h-2.218a1.621,1.621,0,0,1-1.618-1.619,1.155,1.155,0,0,0-1.147-1.175h-2.334a1.148,1.148,0,0,0-1.147,1.147,1.627,1.627,0,0,1-1.619,1.647Z" fill="#6f7170"/>
    </g>
    <g id="Group_1437" data-name="Group 1437">
      <path id="Path_1251" data-name="Path 1251" d="M3780.376,757.3a3.691,3.691,0,1,1,3.691-3.691A3.7,3.7,0,0,1,3780.376,757.3Zm0-6.379a2.688,2.688,0,1,0,2.687,2.688A2.691,2.691,0,0,0,3780.376,750.923Z" fill="#6f7170"/>
    </g>
  </g>
</svg>
