<svg xmlns="http://www.w3.org/2000/svg" width="16.476" height="15.676" viewBox="0 0 16.476 15.676">
  <path id="Path_181" data-name="Path 181" d="M1232.582,2954.542c-4.542,0-8.238,3.054-8.238,6.809a6.026,6.026,0,0,0,2.308,4.626,9.385,9.385,0,0,0,5.432,2.053.2.2,0,0,1,.162.189l-.11,1.519a.448.448,0,0,0,.189.4.446.446,0,0,0,.44.043c.206-.092,5.081-2.291,7.111-5.659a5.9,5.9,0,0,0,.914-2.6c0-.037.007-.073.011-.11v-.012c.005-.047.008-.093.01-.139.007-.112.009-.211.009-.3C1240.82,2957.6,1237.125,2954.542,1232.582,2954.542Zm1.346,10.06h-4.815a.56.56,0,1,1,0-1.119h4.815a.56.56,0,0,1,0,1.119Zm2.236-2.568h-7.051a.559.559,0,1,1,0-1.119h7.051a.559.559,0,0,1,0,1.119Zm0-2.569h-7.051a.559.559,0,1,1,0-1.118h7.051a.559.559,0,1,1,0,1.118Z" transform="translate(-1224.344 -2954.542)" fill="#198080"/>
</svg>
