<svg xmlns="http://www.w3.org/2000/svg" width="18.476" height="17.676" viewBox="0 0 18.476 17.676">
  <path id="Path_1388" data-name="Path 1388" d="M1232.582,2954.542c-4.542,0-8.238,3.054-8.238,6.809a6.026,6.026,0,0,0,2.308,4.626,9.385,9.385,0,0,0,5.432,2.053.2.2,0,0,1,.162.189l-.11,1.519a.448.448,0,0,0,.189.4.446.446,0,0,0,.44.043c.206-.092,5.081-2.291,7.111-5.659a5.9,5.9,0,0,0,.914-2.6c0-.037.007-.073.011-.11v-.012c.005-.047.008-.093.01-.139.007-.112.009-.211.009-.3C1240.82,2957.6,1237.125,2954.542,1232.582,2954.542Z" transform="translate(-1223.344 -2953.542)" fill="none" stroke="#000" stroke-width="2"/>
</svg>
