<svg xmlns="http://www.w3.org/2000/svg" width="32.323" height="32.322" viewBox="0 0 32.323 32.322">
  <g id="Group_12" data-name="Group 12" transform="translate(-58.819 -689.505)">
    <path id="Path_20" data-name="Path 20" d="M74.981,689.505a16.161,16.161,0,1,0,16.161,16.161A16.18,16.18,0,0,0,74.981,689.505Zm0,29.552a13.391,13.391,0,1,1,13.39-13.391A13.406,13.406,0,0,1,74.981,719.057Z" fill="#f0f0f0"/>
    <path id="Path_21" data-name="Path 21" d="M81.234,699.413a1.385,1.385,0,0,0-1.959,0l-4.294,4.3-4.3-4.3a1.385,1.385,0,0,0-1.959,1.959l4.3,4.295-4.3,4.295a1.385,1.385,0,1,0,1.959,1.959l4.3-4.3,4.294,4.3a1.385,1.385,0,0,0,1.959-1.959l-4.295-4.295,4.295-4.295A1.385,1.385,0,0,0,81.234,699.413Z" fill="#f0f0f0"/>
  </g>
</svg>
