<svg xmlns="http://www.w3.org/2000/svg" xmlns:xlink="http://www.w3.org/1999/xlink" width="275.243" height="297.334" viewBox="0 0 275.243 297.334">
  <defs>
    <linearGradient id="linear-gradient" x1="0.5" x2="0.5" y2="1" gradientUnits="objectBoundingBox">
      <stop offset="0" stop-color="#198080"/>
      <stop offset="1" stop-color="#0d4040" stop-opacity="0.008"/>
    </linearGradient>
    <linearGradient id="linear-gradient-2" x1="0.5" x2="0.5" y2="1" gradientUnits="objectBoundingBox">
      <stop offset="0" stop-color="#198080" stop-opacity="0.02"/>
      <stop offset="1" stop-color="#198080"/>
    </linearGradient>
    <linearGradient id="linear-gradient-12" x1="0.5" x2="0.5" y2="1" gradientUnits="objectBoundingBox">
      <stop offset="0" stop-color="#198080"/>
      <stop offset="1" stop-color="#0d4040" stop-opacity="0.027"/>
    </linearGradient>
    <linearGradient id="linear-gradient-15" x1="0.5" x2="0.5" y2="1" gradientUnits="objectBoundingBox">
      <stop offset="0" stop-color="#198080"/>
      <stop offset="1" stop-color="#0d4040" stop-opacity="0.031"/>
    </linearGradient>
    <linearGradient id="linear-gradient-22" x1="0.5" x2="0.5" y2="1" gradientUnits="objectBoundingBox">
      <stop offset="0" stop-color="#198080"/>
      <stop offset="1" stop-color="#0d4040" stop-opacity="0.039"/>
    </linearGradient>
    <linearGradient id="linear-gradient-27" x1="0.5" x2="0.5" y2="1" gradientUnits="objectBoundingBox">
      <stop offset="0" stop-color="#198080"/>
      <stop offset="1" stop-color="#0d4040" stop-opacity="0"/>
    </linearGradient>
    <linearGradient id="linear-gradient-32" y1="0.5" x2="1" y2="0.5" gradientUnits="objectBoundingBox">
      <stop offset="0" stop-color="#198080" stop-opacity="0"/>
      <stop offset="1" stop-color="#198080"/>
    </linearGradient>
    <linearGradient id="linear-gradient-34" x1="0.5" y1="0" x2="0.5" y2="1" xlink:href="#linear-gradient-32"/>
    <linearGradient id="linear-gradient-35" x1="0.5" x2="0.5" y2="1" gradientUnits="objectBoundingBox">
      <stop offset="0" stop-color="#459898"/>
      <stop offset="1" stop-color="#234c4c" stop-opacity="0.02"/>
    </linearGradient>
  </defs>
  <g id="Group_2399" data-name="Group 2399" transform="translate(-49.477 -229.436)">
    <path id="Path_59" data-name="Path 59" d="M2174.271,292.435l-44.482,16.339c-15.83,5.694-24.515,17.905-21.326,32.872l.059.274a20.144,20.144,0,0,0,21.723,15.843l2.873,13.486,8.873-13.676,48.2-4.437a20.144,20.144,0,0,0,15.5-23.9l-4.754-22.317a19.88,19.88,0,0,0-26.674-14.486Z" transform="translate(-2056.809 41.89)" fill="#fff" stroke="#e3e3e3" stroke-linecap="round" stroke-linejoin="round" stroke-width="3"/>
    <path id="Path_60" data-name="Path 60" d="M2176.663,222.409l2.39,14.657a7.177,7.177,0,0,0,8.238,5.928l.071-.011,4.289,14,13.272-16.859,10.572-1.724a15.253,15.253,0,0,0,12.6-17.509l-2.66-16.319a19.219,19.219,0,0,0-22.061-15.876l-2.772.452A28.98,28.98,0,0,0,2176.663,222.409Z" transform="translate(-2076.457 71.359)" fill="#fff" stroke="#b2b2b2" stroke-linecap="round" stroke-linejoin="round" stroke-width="3"/>
    <path id="Path_61" data-name="Path 61" d="M2176.663,222.409l2.39,14.657a7.177,7.177,0,0,0,8.238,5.928l.071-.011,4.289,14,13.272-16.859,10.572-1.724a15.253,15.253,0,0,0,12.6-17.509l-2.66-16.319a19.219,19.219,0,0,0-22.061-15.876l-2.772.452A28.98,28.98,0,0,0,2176.663,222.409Z" transform="translate(-2076.457 71.359)" fill="#fff" stroke="#e3e3e3" stroke-linecap="round" stroke-linejoin="round" stroke-width="3"/>
    <path id="Path_63" data-name="Path 63" d="M2140.649,251.314a16.422,16.422,0,1,1-5.188,32l-6.315,6.315v-10.18a16.419,16.419,0,0,1,11.5-28.138Z" transform="translate(-2061.52 53.317)" fill="#fff" stroke="#e3e3e3" stroke-linecap="round" stroke-linejoin="round" stroke-width="3"/>
    <path id="Path_64" data-name="Path 64" d="M2438.874,255.435a7.264,7.264,0,0,0-2.646,14.284,7.51,7.51,0,0,0,1.11.128,7.489,7.489,0,0,1,5.053,2.1l.323.324v-4.5a7.259,7.259,0,0,0-3.84-12.337Z" transform="translate(-2149.369 52.164)" fill="#fff" stroke="#e3e3e3" stroke-linecap="round" stroke-linejoin="round" stroke-width="3"/>
    <path id="Path_65" data-name="Path 65" d="M2375.338,249.193a7.264,7.264,0,0,1,2.646,14.284,7.5,7.5,0,0,1-1.109.128,7.493,7.493,0,0,0-5.054,2.1l-.323.324v-4.5a7.259,7.259,0,0,1,3.84-12.336Z" transform="translate(-2131.851 53.955)" stroke="#e3e3e3" stroke-linecap="round" stroke-linejoin="round" stroke-width="3" fill="url(#linear-gradient)"/>
    <path id="Path_67" data-name="Path 67" d="M2290.095,258.684c-21.911,0-39.673,13.887-39.673,31.017,0,12.366,9.257,23.038,22.648,28.021v13.93l14.1-11.026c.966.055,1.938.093,2.922.093,21.911,0,39.673-13.887,39.673-31.017S2312.006,258.684,2290.095,258.684Z" transform="translate(-2097.732 51.202)" fill="#fff" stroke="#e3e3e3" stroke-linecap="round" stroke-linejoin="round" stroke-width="3"/>
    <path id="Path_69" data-name="Path 69" d="M2337.722,480.607c0-21.463-20.276-38.861-45.289-38.861s-45.289,17.4-45.289,38.861,20.277,38.861,45.289,38.861a51.72,51.72,0,0,0,17.035-2.853L2321.1,526.6V510.687C2331.247,503.561,2337.722,492.734,2337.722,480.607Z" transform="translate(-2096.792 -1.328)" fill="#fff" stroke="#e3e3e3" stroke-linecap="round" stroke-linejoin="round" stroke-width="3"/>
    <g id="Group_74" data-name="Group 74" transform="translate(151.957 386.997)">
      <path id="Path_72" data-name="Path 72" d="M2313.4,367.436a90.108,90.108,0,0,1-42.881,2.151c-6.479-1.219-13.427,1.957-15.7,8.154q-2.465,7.272-4.931,14.544c-2.277,6.162,3.516,13.943,13.208,15.8a129.329,129.329,0,0,0,41.024,1.276c9.258,4.022,12.989,5.389,23.919,9.172l-3.938-13.374.538-.16c9.458-2.822,14.442-11.143,11.561-17.046l-6.362-13.978C2326.956,368.04,2319.724,365.576,2313.4,367.436Z" transform="translate(-2249.394 -366.827)" fill="#fff" stroke="#e3e3e3" stroke-linecap="round" stroke-linejoin="round" stroke-width="3"/>
    </g>
    <path id="Path_73" data-name="Path 73" d="M2409.267,217.051l-7.891-7.02a15.184,15.184,0,0,0-21.436,1.253l-.17.191a10.092,10.092,0,0,0,.833,14.247l11.958,10.638.75,12.816,6.033-6.782.185.165a7.765,7.765,0,0,0,10.963-.64l.212-.24A17.443,17.443,0,0,0,2409.267,217.051Z" transform="translate(-2134.118 66.265)" fill="#fff" stroke="#e3e3e3" stroke-linecap="round" stroke-linejoin="round" stroke-width="3"/>
    <ellipse id="Ellipse_22" data-name="Ellipse 22" cx="3.06" cy="3.06" rx="3.06" ry="3.06" transform="translate(185.973 461.433)" fill="url(#linear-gradient-2)"/>
    <ellipse id="Ellipse_23" data-name="Ellipse 23" cx="3.06" cy="3.06" rx="3.06" ry="3.06" transform="translate(59.647 412.228)" fill="url(#linear-gradient-2)"/>
    <ellipse id="Ellipse_24" data-name="Ellipse 24" cx="3.06" cy="3.06" rx="3.06" ry="3.06" transform="translate(139.059 400.823)" fill="url(#linear-gradient-2)"/>
    <ellipse id="Ellipse_25" data-name="Ellipse 25" cx="1.802" cy="1.802" rx="1.802" ry="1.802" transform="translate(151.729 316.641)" fill="url(#linear-gradient-2)"/>
    <ellipse id="Ellipse_26" data-name="Ellipse 26" cx="1.802" cy="1.802" rx="1.802" ry="1.802" transform="translate(234.825 329.046)" fill="#b2b2b2"/>
    <ellipse id="Ellipse_27" data-name="Ellipse 27" cx="1.802" cy="1.802" rx="1.802" ry="1.802" transform="translate(218.616 372.399)" fill="url(#linear-gradient-2)"/>
    <ellipse id="Ellipse_28" data-name="Ellipse 28" cx="3.06" cy="3.06" rx="3.06" ry="3.06" transform="translate(79.129 314.368)" fill="url(#linear-gradient-2)"/>
    <ellipse id="Ellipse_29" data-name="Ellipse 29" cx="3.06" cy="3.06" rx="3.06" ry="3.06" transform="translate(66.94 314.368)" fill="url(#linear-gradient-2)"/>
    <ellipse id="Ellipse_30" data-name="Ellipse 30" cx="3.06" cy="3.06" rx="3.06" ry="3.06" transform="translate(195.441 461.433)" fill="url(#linear-gradient-2)"/>
    <ellipse id="Ellipse_31" data-name="Ellipse 31" cx="3.06" cy="3.06" rx="3.06" ry="3.06" transform="translate(183.378 331.568)" fill="url(#linear-gradient-2)"/>
    <ellipse id="Ellipse_32" data-name="Ellipse 32" cx="3.06" cy="3.06" rx="3.06" ry="3.06" transform="translate(194.985 331.568)" fill="url(#linear-gradient-2)"/>
    <ellipse id="Ellipse_33" data-name="Ellipse 33" cx="3.06" cy="3.06" rx="3.06" ry="3.06" transform="translate(253.066 282.233)" fill="url(#linear-gradient-12)"/>
    <path id="Path_1482" data-name="Path 1482" d="M3.06,0A3.06,3.06,0,1,1,0,3.06,3.06,3.06,0,0,1,3.06,0Z" transform="translate(259.52 287.841)" fill="url(#linear-gradient-12)"/>
    <ellipse id="Ellipse_35" data-name="Ellipse 35" cx="3.06" cy="3.06" rx="3.06" ry="3.06" transform="translate(265.974 293.45)" fill="url(#linear-gradient-12)"/>
    <path id="Path_75" data-name="Path 75" d="M2315.563,484.775a33.441,33.441,0,0,1-27.049-.488" transform="translate(-2108.663 -13.536)" fill="none" stroke="#e3e3e3" stroke-linecap="round" stroke-linejoin="round" stroke-width="3"/>
    <path id="Path_76" data-name="Path 76" d="M2328,478.936s-2.086,4.066,3.313,6.36" transform="translate(-2119.879 -12)" fill="none" stroke="#e3e3e3" stroke-linecap="round" stroke-linejoin="round" stroke-width="3"/>
    <g id="Group_75" data-name="Group 75" transform="translate(164.328 404.381)">
      <path id="Path_77" data-name="Path 77" d="M2273.375,395.916q.992.231,1.985.438-.665,3.2-1.33,6.4-1.069-.222-2.136-.471l.205-.883a3.067,3.067,0,0,1-2.739.518,3.3,3.3,0,0,1-2.437-4.35,3.4,3.4,0,0,1,4.224-2.464,2.979,2.979,0,0,1,2.022,1.7Zm-.754,3.179a1.891,1.891,0,0,0-3.661-.936,1.889,1.889,0,0,0,3.661.936Z" transform="translate(-2266.744 -392.289)" fill="url(#linear-gradient-15)"/>
      <path id="Path_78" data-name="Path 78" d="M2281.76,397.562l-.148.868a2.749,2.749,0,0,1,2.358-.778,2.605,2.605,0,0,1,2.268,3.019l-.46,4.057q-1.081-.123-2.159-.271.256-1.858.511-3.716a1.268,1.268,0,0,0-1.107-1.527,1.447,1.447,0,0,0-1.689,1.175q-.308,1.812-.617,3.623-1.075-.183-2.146-.391.624-3.207,1.248-6.413Q2280.788,397.4,2281.76,397.562Z" transform="translate(-2270.138 -392.929)" fill="url(#linear-gradient-15)"/>
      <path id="Path_79" data-name="Path 79" d="M2293.723,397.758a2.947,2.947,0,0,1,2.221,1.167q.075-1.862.151-3.724.972.038,1.946.056-.079,4.733-.159,9.467-1.071-.018-2.141-.061l.032-.79a3.111,3.111,0,0,1-2.521.912,3.279,3.279,0,0,1-3.148-3.806A3.374,3.374,0,0,1,2293.723,397.758Zm-1.531,3.417a1.872,1.872,0,0,0,3.736.227,1.874,1.874,0,0,0-3.736-.227Z" transform="translate(-2273.44 -392.353)" fill="url(#linear-gradient-15)"/>
      <path id="Path_80" data-name="Path 80" d="M2307.412,396.147a1.143,1.143,0,1,1,1.194,1.035A1.07,1.07,0,0,1,2307.412,396.147Zm2.243,1.845.4,6.522q-1.081.066-2.166.108l-.248-6.529Q2308.65,398.053,2309.655,397.991Z" transform="translate(-2278.414 -392.303)" fill="url(#linear-gradient-15)"/>
      <path id="Path_81" data-name="Path 81" d="M2324.991,400.32c.432,2.031-.927,3.8-3.366,4.19-2.423.383-4.261-.879-4.479-2.945a3.633,3.633,0,0,1,3.375-4.011C2322.746,397.2,2324.556,398.27,2324.991,400.32Zm-2.072.4a1.865,1.865,0,0,0-3.682.585,1.864,1.864,0,0,0,3.682-.585Z" transform="translate(-2281.201 -393.009)" fill="url(#linear-gradient-15)"/>
      <path id="Path_82" data-name="Path 82" d="M2336.463,397.537c.624,1.981-.57,3.875-2.969,4.5s-4.337-.469-4.75-2.5c-.417-2.054.816-3.756,2.992-4.315S2335.836,395.538,2336.463,397.537Zm-2.034.6a1.872,1.872,0,0,0-3.623.934,1.871,1.871,0,0,0,3.623-.934Z" transform="translate(-2284.513 -392.308)" fill="url(#linear-gradient-15)"/>
      <path id="Path_83" data-name="Path 83" d="M2345.742,398.038a3.11,3.11,0,0,1-2.671-.155q.6,1.763,1.208,3.525-1.069.367-2.144.707-1.427-4.515-2.854-9.029.954-.3,1.9-.627l.257.749a3.088,3.088,0,0,1,1.84-1.768,3.391,3.391,0,0,1,4.424,2.037A3.29,3.29,0,0,1,2345.742,398.038Zm0-3.767a1.893,1.893,0,0,0-3.549,1.3,1.891,1.891,0,0,0,3.549-1.3Z" transform="translate(-2287.559 -391.207)" fill="url(#linear-gradient-15)"/>
    </g>
    <g id="Group_77" data-name="Group 77" transform="translate(74.647 360.503)">
      <path id="Path_89" data-name="Path 89" d="M2143.273,354.8a1.612,1.612,0,1,1,1.906,1.2A1.534,1.534,0,0,1,2143.273,354.8Zm1.267-8.814.368,5.283-1.414.3-1.781-4.983-.741-3.479,2.827-.6Z" transform="translate(-2140.972 -333.355)" fill="url(#linear-gradient-22)"/>
      <path id="Path_90" data-name="Path 90" d="M2151.379,349.134c.73,3.425,3.527,5.443,6.663,4.775a6.365,6.365,0,0,0,2.594-1.254l.421,1.976a6.33,6.33,0,0,1-2.6,1.217,7.67,7.67,0,0,1-9.215-6.258c-.973-4.568,1.891-8.645,6.839-9.7s9.223,1.5,10.2,6.069c.594,2.79-.232,5.051-2.605,5.556a2.5,2.5,0,0,1-3.069-1.6,3.845,3.845,0,0,1-2.759,1.989c-2.066.44-3.8-.934-4.289-3.235a4.3,4.3,0,0,1,8.413-1.773l.4,1.885c.135.635.509,1.236,1.161,1.1.852-.181.983-1.611.59-3.46a6.52,6.52,0,0,0-12.74,2.715Zm5.962-3.316a1.9,1.9,0,0,0-1.468,2.359,1.928,1.928,0,1,0,3.77-.8A1.91,1.91,0,0,0,2157.341,345.818Z" transform="translate(-2143.29 -332.536)" fill="url(#linear-gradient-22)"/>
      <path id="Path_91" data-name="Path 91" d="M2182.522,348.973l-2.827.6-.4-1.885c-2.573.018-4.615-1.385-5.1-3.669l2.737-.583c.3,1.4,1.76,2.126,3.5,1.756,1.486-.317,2.252-1.257,2.032-2.29-.259-1.214-1.692-1.1-3.331-.958-2.625.219-5.205.2-5.846-2.809-.463-2.174.778-4.087,3.122-5l-.344-1.614,2.827-.6.355,1.667a4.589,4.589,0,0,1,4.76,3.495l-2.646.563c-.252-1.271-1.586-1.935-3.145-1.6-1.431.305-2.231,1.177-2.03,2.119.259,1.214,1.585,1.121,3.262.991,2.562-.243,5.27-.251,5.9,2.721.483,2.265-.772,4.295-3.22,5.252Z" transform="translate(-2150.216 -330.316)" fill="url(#linear-gradient-22)"/>
      <path id="Path_92" data-name="Path 92" d="M2190.209,339.538a1.613,1.613,0,1,1,1.905,1.2A1.533,1.533,0,0,1,2190.209,339.538Zm1.4,6.578a1.612,1.612,0,1,1,1.9,1.205A1.533,1.533,0,0,1,2191.611,346.116Z" transform="translate(-2155.09 -331.957)" fill="url(#linear-gradient-22)"/>
      <path id="Path_93" data-name="Path 93" d="M2199.993,339.721a3.918,3.918,0,0,1,1.032-4.047c.62-.644,1.223-1.284,1.038-2.153a1.789,1.789,0,0,0-2.212-1.31,2.447,2.447,0,0,0-1.746,2.834l-2.844.076a4.912,4.912,0,0,1,4.193-5.307c2.683-.571,5.055.609,5.535,2.856a3.758,3.758,0,0,1-1.516,3.733,2.524,2.524,0,0,0-.98,2.785Zm.215,2.607a1.612,1.612,0,1,1,1.9,1.2A1.538,1.538,0,0,1,2200.207,342.327Z" transform="translate(-2156.542 -329.671)" fill="url(#linear-gradient-22)"/>
    </g>
    <path id="Path_95" data-name="Path 95" d="M2142.3,266.107l-4.754,11.29h4.788" transform="translate(-2065.341 49.072)" fill="#fff" stroke="#e3e3e3" stroke-linecap="round" stroke-linejoin="round" stroke-width="3"/>
    <path id="Path_96" data-name="Path 96" d="M2297.465,321.892c10.877,0,19.694-7.63,19.694-17.042H2277.77C2277.77,314.262,2286.588,321.892,2297.465,321.892Z" transform="translate(-2105.58 37.955)" fill="none" stroke="#e3e3e3" stroke-linecap="round" stroke-linejoin="round" stroke-width="3"/>
    <path id="Path_97" data-name="Path 97" d="M2204.51,232.294,2208,229.1l5.514,7.474c.015.023.07.085.09.106a1.338,1.338,0,0,0,2.316-1.062l-2.121-16.182a1.339,1.339,0,0,0-2.237-.858l-4.273,3.91-4.787-6.661c-.019-.025-.081-.1-.1-.12a1.339,1.339,0,0,0-1.891-.085,1.361,1.361,0,0,0-.424,1.159l2.186,14.655a1.34,1.34,0,0,0,2.238.857Z" transform="translate(-2083.286 63.659)" fill="url(#linear-gradient-27)"/>
    <path id="Path_98" data-name="Path 98" d="M2376.9,379.971l1.361-1.245,2.149,2.912a.479.479,0,0,0,.034.041.522.522,0,0,0,.9-.414l-.826-6.306a.522.522,0,0,0-.872-.334l-1.665,1.523-1.865-2.595-.04-.047a.522.522,0,0,0-.737-.033.532.532,0,0,0-.166.451l.852,5.711a.535.535,0,0,0,.135.3.523.523,0,0,0,.737.033Z" transform="translate(-2133.53 18.302)" fill="url(#linear-gradient-2)"/>
    <g id="Group_81" data-name="Group 81" transform="translate(286.515 313.866)">
      <g id="Group_80" data-name="Group 80" transform="translate(0)">
        <path id="Path_99" data-name="Path 99" d="M2442.336,264.3a.341.341,0,0,0-.16.454,2.383,2.383,0,0,1-3.535,2.965.34.34,0,1,0-.4.553,3.063,3.063,0,0,0,4.545-3.812A.341.341,0,0,0,2442.336,264.3Z" transform="translate(-2438.102 -264.266)" fill="url(#linear-gradient-2)"/>
      </g>
    </g>
    <g id="Group_83" data-name="Group 83" transform="translate(287.827 311.204)">
      <g id="Group_82" data-name="Group 82" transform="translate(0)">
        <path id="Path_100" data-name="Path 100" d="M2441.685,261.585l-.818.2.334-.772a.34.34,0,0,0-.624-.271l-.606,1.4a.34.34,0,0,0,.391.466l1.48-.353a.34.34,0,0,0-.158-.662Z" transform="translate(-2439.943 -260.532)" fill="url(#linear-gradient-2)"/>
      </g>
    </g>
    <g id="Group_85" data-name="Group 85" transform="translate(284.541 314.107)">
      <g id="Group_84" data-name="Group 84" transform="translate(0)">
        <path id="Path_101" data-name="Path 101" d="M2435.7,264.841a1.021,1.021,0,1,0,1.438.126A1.022,1.022,0,0,0,2435.7,264.841Z" transform="translate(-2435.334 -264.603)" fill="url(#linear-gradient-2)"/>
      </g>
    </g>
    <g id="Group_72" data-name="Group 72" transform="translate(241.505 335.803)">
      <path id="Path_66" data-name="Path 66" d="M2186.912,406.063a28.913,28.913,0,0,1,12.517,6.2,23.675,23.675,0,0,1,6.772,23.2l-.019.072a23.291,23.291,0,0,1-4.755,8.916l-10.672,12.69c-8.578,9.2-20.525,15.971-31.067,12.022l-7.3,11.365-3.9-17.9-18.268-11.732c-7.863-5.05-4.661-25.059-1.952-36.876,1.768-7.713,8.561-14.108,16.448-13.468C2162.666,402,2177.28,404.309,2186.912,406.063Z" transform="translate(-2125.269 -400.503)" fill="#fff" stroke="#e3e3e3" stroke-linecap="round" stroke-linejoin="round" stroke-width="3"/>
    </g>
    <g id="Group_90" data-name="Group 90" transform="translate(256.696 357.163)">
      <g id="Group_89" data-name="Group 89">
        <path id="Path_104" data-name="Path 104" d="M2165.408,433.7c.31-.131.633-.247.961-.352h0l9.533-1.364,2.888-1.293.017.006a3.5,3.5,0,0,1,4.768,3.444,3.193,3.193,0,0,1,1.608.089,2.762,2.762,0,0,1,.262.091,3.257,3.257,0,0,1,1.436,1.089,3.5,3.5,0,0,1,5.845.64l.016.006,1.281,2.893,6.173,7.393h0a7.936,7.936,0,0,1,.478.9,9.754,9.754,0,1,1-18.307,1.772,4.9,4.9,0,0,1-4.537-1.742,9.754,9.754,0,0,1-17.709-8.094A9.673,9.673,0,0,1,2165.408,433.7Zm24.042,23.877a6.654,6.654,0,1,0-3.828-8.6A6.652,6.652,0,0,0,2189.449,457.578Zm-8.6-11.407a2.162,2.162,0,1,0-1.243-2.792A2.163,2.163,0,0,0,2180.851,446.171Zm-14.022,2.725a6.654,6.654,0,1,0-3.828-8.6A6.651,6.651,0,0,0,2166.828,448.9Z" transform="translate(-2159.475 -430.458)" fill="none" stroke="#e3e3e3" stroke-linecap="round" stroke-linejoin="round" stroke-width="3"/>
      </g>
    </g>
    <path id="Path_105" data-name="Path 105" d="M2231.226,500.482a7.831,7.831,0,0,0,.049-1.113,1.958,1.958,0,0,0-.648-1.4,7.85,7.85,0,0,0-.881-.682,7.6,7.6,0,0,0-11.807,5.469,7.791,7.791,0,0,0-.05,1.113,1.961,1.961,0,0,0,.648,1.4,7.792,7.792,0,0,0,.881.682,7.681,7.681,0,0,0,3.91,1.288c-.161,0-.322,0-.481-.011a7.73,7.73,0,0,0-1.154,2.6c-.164.665.657,1.246,1.009.714l.652-.985a.549.549,0,0,1,.821-.093l1.134.853a3.419,3.419,0,0,0,5.468-2.533l.083-1.416a.548.548,0,0,1,.6-.566l.973.117c.634.076.707-.945.086-1.219a8.692,8.692,0,0,0-2.621-.7A7.692,7.692,0,0,0,2231.226,500.482Z" transform="translate(-2088.396 -16.894)" fill="#198080" stroke="#e3e3e3" stroke-linecap="round" stroke-linejoin="round" stroke-width="3"/>
    <path id="Path_106" data-name="Path 106" d="M2233.257,279.97l-8.937.057a1.513,1.513,0,0,1-1.521-1.5l-.036-5.708a1.7,1.7,0,0,1,1.688-1.71l1.578-.01a.439.439,0,0,0,.435-.441,1.536,1.536,0,0,1,1.52-1.559l1.659-.011a1.532,1.532,0,0,1,1.54,1.52.443.443,0,0,0,.44.455l1.578-.011a1.7,1.7,0,0,1,1.71,1.688l.035,5.52A1.7,1.7,0,0,1,2233.257,279.97Z" transform="translate(-2089.795 48.217)" fill="none" stroke="#e3e3e3" stroke-linecap="round" stroke-linejoin="round" stroke-width="3"/>
    <path id="Path_107" data-name="Path 107" d="M2230.524,275.455a1.911,1.911,0,1,0,1.924,1.9A1.914,1.914,0,0,0,2230.524,275.455Z" transform="translate(-2091.477 46.39)" fill="#fff" stroke="#e3e3e3" stroke-linecap="round" stroke-linejoin="round" stroke-width="3"/>
    <g id="Group_94" data-name="Group 94" transform="translate(151.355 430.814)">
      <path id="Path_108" data-name="Path 108" d="M2257.859,446.286a.564.564,0,0,0,1.116-.156l-.769-5.508,2.824-.915a.7.7,0,0,0,.23-1.239l-2.432-1.836,2.987-3.114c.011-.012.042-.051.052-.064a.706.706,0,0,0-.138-.987.717.717,0,0,0-.64-.108l-3.853,1.324-.687-4.92a.563.563,0,1,0-1.116.156Z" transform="translate(-2250.524 -428.277)" stroke="#e3e3e3" stroke-linecap="round" stroke-linejoin="round" stroke-width="3" fill="url(#linear-gradient-32)"/>
      <path id="Path_109" data-name="Path 109" d="M2250.319,438.33a.7.7,0,0,0-.229,1.239l1.987,1.5-3.339,3.568a.617.617,0,0,0-.046.056.705.705,0,0,0,.138.987.713.713,0,0,0,.633.11l3.438-1.114-.963-6.9Z" transform="translate(-2248.55 -431.002)" stroke="#e3e3e3" stroke-linecap="round" stroke-linejoin="round" stroke-width="3" fill="url(#linear-gradient-32)"/>
    </g>
    <ellipse id="Ellipse_38" data-name="Ellipse 38" cx="6.01" cy="6.01" rx="6.01" ry="6.01" transform="translate(155.706 370.543)" stroke="#e3e3e3" stroke-linecap="round" stroke-linejoin="round" stroke-width="3" fill="url(#linear-gradient-34)"/>
    <g id="Group_95" data-name="Group 95" transform="translate(79.832 284.819)">
      <ellipse id="Ellipse_39" data-name="Ellipse 39" cx="7.295" cy="7.295" rx="7.295" ry="7.295" fill="none" stroke="#e3e3e3" stroke-linecap="round" stroke-linejoin="round" stroke-width="3"/>
      <path id="Path_110" data-name="Path 110" d="M2160.088,240.568a.475.475,0,0,0,.177-.573,6.16,6.16,0,0,0-4.287-3.535l-.008,0c-.094-.023-.187-.044-.281-.063h-.011l-.01,0c-.095-.019-.189-.035-.284-.05h-.008a6.158,6.158,0,0,0-5.318,1.61.474.474,0,0,0-.058.6,7.22,7.22,0,0,0,4.349,3.031c.065.016.13.03.2.044l.073.016h.01l.01,0,.073.014.2.034A7.221,7.221,0,0,0,2160.088,240.568Z" transform="translate(-2148.725 -227.182)" fill="#198080"/>
      <path id="Path_111" data-name="Path 111" d="M2156.057,230.055l-.067.335a2.131,2.131,0,1,0,4.133.829l.067-.335a2.11,2.11,0,1,0-4.133-.829Z" transform="translate(-2150.454 -224.887)" fill="#198080"/>
    </g>
    <path id="Path_1480" data-name="Path 1480" d="M2713.771,422.86c19.211-3.135,32.736-18.608,30.144-34.489-1.2-7.355-5.8-13.736-12.957-17.972a40.177,40.177,0,0,0-24.394-4.935.868.868,0,0,1-.816-.689l-.583-6.5a1.918,1.918,0,0,0-1.074-1.553,1.894,1.894,0,0,0-1.144-.168,1.927,1.927,0,0,0-.744.29c-.811.531-19.912,13.2-26.172,28.849a25.3,25.3,0,0,0-2.07,11.644c.009.159.021.312.031.472l.006.053c.015.2.034.4.054.592.05.479.108.9.172,1.295C2676.816,415.627,2694.556,426,2713.771,422.86Z" transform="translate(-2600.335 48.653)" fill="#e3e3e3"/>
    <path id="Path_11" data-name="Path 11" d="M3923.7,264.83a35.146,35.146,0,1,0-14.69,36.411l10.708,6.959-2.987-14.077A35.072,35.072,0,0,0,3923.7,264.83Z" transform="translate(-3695.382 -5.971)" fill="#fff" stroke="#e3e3e3" stroke-linecap="round" stroke-linejoin="round" stroke-width="3"/>
    <g id="Group_2054" data-name="Group 2054" transform="translate(241.84 421.87)">
      <path id="Path_1449" data-name="Path 1449" d="M3221.826,284.145c-19.963,0-36.208,13.426-36.208,29.927,0,7.642,3.6,14.862,10.146,20.331a41.2,41.2,0,0,0,23.875,9.024.89.89,0,0,1,.712.833l-.483,6.677a1.968,1.968,0,0,0,.829,1.75,1.946,1.946,0,0,0,1.131.359,1.982,1.982,0,0,0,.8-.17c.908-.4,22.334-10.072,31.255-24.876a25.944,25.944,0,0,0,4.019-11.443c.017-.162.03-.319.047-.482l0-.055c.019-.205.032-.407.043-.608.029-.493.039-.927.039-1.338C3258.034,297.571,3241.792,284.145,3221.826,284.145Z" transform="translate(-3185.618 -284.145)" fill="#fff" stroke="#e3e3e3" stroke-linecap="round" stroke-linejoin="round" stroke-width="3"/>
      <ellipse id="Ellipse_649" data-name="Ellipse 649" cx="2.767" cy="2.767" rx="2.767" ry="2.767" transform="translate(25.065 13.083)" fill="#e3e3e3"/>
      <ellipse id="Ellipse_650" data-name="Ellipse 650" cx="2.767" cy="2.767" rx="2.767" ry="2.767" transform="translate(36.208 13.083)" fill="#e3e3e3"/>
      <path id="Path_1450" data-name="Path 1450" d="M3225.2,322.977a30.245,30.245,0,0,1,24.463.442" transform="translate(-3199.673 -297.094)" fill="none" stroke="#e3e3e3" stroke-linecap="round" stroke-linejoin="round" stroke-width="3"/>
      <path id="Path_1451" data-name="Path 1451" d="M3221.838,327.15s1.887-3.677-3-5.752" transform="translate(-3197.417 -297.375)" fill="none" stroke="#e3e3e3" stroke-linecap="round" stroke-linejoin="round" stroke-width="3"/>
    </g>
    <ellipse id="Ellipse_5" data-name="Ellipse 5" cx="10.891" cy="10.891" rx="10.891" ry="10.891" transform="matrix(0.985, -0.174, 0.174, 0.985, 180.516, 256.509)" fill="none" stroke="#198080" stroke-miterlimit="10" stroke-width="3"/>
    <path id="Path_15" data-name="Path 15" d="M51.524,10.891S40.163,21.782,25.762,21.781,0,10.891,0,10.891,11.361,0,25.762,0,51.524,10.891,51.524,10.891Z" transform="matrix(0.985, -0.174, 0.174, 0.985, 165.87, 259.091)" fill="none" stroke="#e3e3e3" stroke-linecap="round" stroke-linejoin="round" stroke-width="3"/>
    <path id="Subtraction_2" data-name="Subtraction 2" d="M6.689,13.379A6.689,6.689,0,0,1,6.689,0,6.616,6.616,0,0,1,9.756.743a2.046,2.046,0,0,0,2.88,2.88,6.614,6.614,0,0,1,.743,3.067A6.7,6.7,0,0,1,6.689,13.379Z" transform="matrix(0.985, -0.174, 0.174, 0.985, 185.383, 259.917)" stroke="rgba(0,0,0,0)" stroke-miterlimit="10" stroke-width="1" fill="url(#linear-gradient-35)"/>
    <path id="Path_16" data-name="Path 16" d="M0,6.472S8.516-5.872,23.19,3.535a9.367,9.367,0,0,1,3.983,10.581c-.785,2.541-2.792,5.164-7.255,7.03a8.136,8.136,0,0,1-9.853-2.826q-.119-.176-.234-.364A7.3,7.3,0,0,1,8.9,13.039c.3-1.984.574-5.412-.718-7.009C8.293,6.251,11.886,9.679,0,6.472Z" transform="matrix(0.985, -0.174, 0.174, 0.985, 182.847, 269.734)" fill="#e3e3e3" stroke="#e3e3e3" stroke-linecap="round" stroke-linejoin="round" stroke-width="3"/>
  </g>
</svg>
