<svg xmlns="http://www.w3.org/2000/svg" width="14.483" height="17.695" viewBox="0 0 14.483 17.695">
  <g id="delete" transform="translate(0.262 0.251)">
    <path id="Path_1409" data-name="Path 1409" d="M222.8,154.7a.4.4,0,0,0-.4.4v7.611a.4.4,0,0,0,.805,0v-7.611A.4.4,0,0,0,222.8,154.7Zm0,0" transform="translate(-213.446 -148.475)" fill="#fff" stroke="#fff" stroke-width="0.5"/>
    <path id="Path_1410" data-name="Path 1410" d="M104.8,154.7a.4.4,0,0,0-.4.4v7.611a.4.4,0,0,0,.805,0v-7.611A.4.4,0,0,0,104.8,154.7Zm0,0" transform="translate(-100.197 -148.475)" fill="#fff" stroke="#fff" stroke-width="0.5"/>
    <path id="Path_1411" data-name="Path 1411" d="M1.141,5.118v9.922a2.222,2.222,0,0,0,.591,1.532,1.983,1.983,0,0,0,1.439.622h7.619a1.983,1.983,0,0,0,1.439-.622,2.222,2.222,0,0,0,.591-1.532V5.118a1.538,1.538,0,0,0-.395-3.025H10.362v-.5A1.582,1.582,0,0,0,8.767,0H5.192A1.582,1.582,0,0,0,3.6,1.589v.5H1.535a1.538,1.538,0,0,0-.395,3.025Zm9.649,11.271H3.17a1.275,1.275,0,0,1-1.224-1.349V5.153H12.013v9.886A1.275,1.275,0,0,1,10.789,16.388ZM4.4,1.589A.776.776,0,0,1,5.192.8H8.767a.776.776,0,0,1,.789.785v.5H4.4ZM1.535,2.9H12.424a.725.725,0,0,1,0,1.45H1.535a.725.725,0,1,1,0-1.45Zm0,0" transform="translate(0 0)" fill="#fff" stroke="#fff" stroke-width="0.5"/>
    <path id="Path_1412" data-name="Path 1412" d="M163.8,154.7a.4.4,0,0,0-.4.4v7.611a.4.4,0,1,0,.805,0v-7.611A.4.4,0,0,0,163.8,154.7Zm0,0" transform="translate(-156.822 -148.475)" fill="#fff" stroke="#fff" stroke-width="0.5"/>
  </g>
</svg>
