<svg xmlns="http://www.w3.org/2000/svg" width="13.06" height="13.06" viewBox="0 0 13.06 13.06">
  <g id="double-up-arrow" transform="translate(9.367 -2.406) rotate(45)">
    <path id="Path_1368" data-name="Path 1368" d="M1.067,431.07a1.058,1.058,0,0,0,.673-.24l2.56-2.086,2.585,2.106A1.066,1.066,0,0,0,8.232,429.2l-3.259-2.655a1.066,1.066,0,0,0-1.347,0L.393,429.177a1.066,1.066,0,0,0,.674,1.893Z" transform="translate(0 -417.843)" fill="#4c88f5"/>
    <path id="Path_1369" data-name="Path 1369" d="M1.067,10.17a1.058,1.058,0,0,0,.673-.24L4.3,7.844,6.885,9.95A1.066,1.066,0,1,0,8.232,8.3L4.973,5.642a1.066,1.066,0,0,0-1.347,0L.393,8.276a1.066,1.066,0,0,0,.674,1.894Z" transform="translate(0 -2)" fill="#4c88f5"/>
  </g>
</svg>
