<svg xmlns="http://www.w3.org/2000/svg" width="24.079" height="25.878" viewBox="0 0 24.079 25.878">
  <path id="Path_1438" data-name="Path 1438" d="M77.85,320.953a13.166,13.166,0,0,0,.86-1.659,3.285,3.285,0,0,0,0-2.587,13.122,13.122,0,0,0-.86-1.659,12.757,12.757,0,0,0-21.828,0,13.084,13.084,0,0,0-.86,1.659,3.285,3.285,0,0,0,0,2.587,13.128,13.128,0,0,0,.86,1.659,12.891,12.891,0,0,0,5.044,4.719q-.369-.171-.725-.356a12.956,12.956,0,0,0-3.588,3.14c-.718.9.123,2.361,1.033,1.8l1.687-1.041a.92.92,0,0,1,1.314.438l1.125,2.1a5.735,5.735,0,0,0,10.109,0l1.125-2.1a.92.92,0,0,1,1.314-.438l1.4.864c.911.562,1.743-.94.991-1.794a14.587,14.587,0,0,0-3.5-2.914A12.911,12.911,0,0,0,77.85,320.953Z" transform="translate(-54.896 -308.896)" fill="#198080"/>
</svg>
