<svg xmlns="http://www.w3.org/2000/svg" width="44.536" height="15.613" viewBox="0 0 44.536 15.613">
  <g id="Group_2002" data-name="Group 2002" transform="translate(-148.156 -306.994)">
    <path id="Path_15" data-name="Path 15" d="M229.356,332.512a.658.658,0,0,1,.153-.444.559.559,0,0,1,.449-.179h1.7a.629.629,0,0,1,.23.046.647.647,0,0,1,.209.133.8.8,0,0,1,.153.2.5.5,0,0,1,.061.245V341.8q0,.613-.643.613h-1.7a.542.542,0,0,1-.613-.613Z" transform="translate(-66.343 -20.34)" fill="#198080"/>
    <path id="Path_16" data-name="Path 16" d="M229.356,308.836a.538.538,0,0,1,.6-.615h1.716a.668.668,0,0,1,.459.154.584.584,0,0,1,.174.461v1.527a.715.715,0,0,1-.163.446.549.549,0,0,1-.459.21h-1.716q-.613,0-.613-.656Z" transform="translate(-66.343 -1.003)" fill="#198080"/>
    <path id="Path_18" data-name="Path 18" d="M161.247,315.818a7.448,7.448,0,0,1-.276,2.037,7.588,7.588,0,0,1-.777,1.818,7.483,7.483,0,0,1-2.759,2.7,7.9,7.9,0,0,1-3.9,1.016h-4.905a.646.646,0,0,1-.327-.082.367.367,0,0,1-.143-.347V308.7a.42.42,0,0,1,.47-.48h4.905a7.78,7.78,0,0,1,3.03.587,7.663,7.663,0,0,1,2.448,1.613,7.543,7.543,0,0,1,1.64,2.41A7.447,7.447,0,0,1,161.247,315.818Zm-10.14-4.8v9.568h.97q.766,0,1.532-.031a4.894,4.894,0,0,0,1.869-.414,4.769,4.769,0,0,0,1.486-1.027,4.651,4.651,0,0,0,.98-1.508,4.867,4.867,0,0,0,.352-1.855,4.75,4.75,0,0,0-.383-1.927,4.512,4.512,0,0,0-1.047-1.5,4.724,4.724,0,0,0-1.552-.966,5.206,5.206,0,0,0-1.889-.343Z" transform="translate(0 -1.003)" fill="#198080"/>
    <path id="Path_19" data-name="Path 19" d="M266.074,308.321a.731.731,0,0,1,.2.173.381.381,0,0,1,.082.245.524.524,0,0,1-.061.235l-.991,1.685a.475.475,0,0,1-.368.235.487.487,0,0,1-.143-.025.685.685,0,0,1-.163-.077,5.422,5.422,0,0,0-1.379-.715,4.731,4.731,0,0,0-1.562-.255,4.575,4.575,0,0,0-1.909.393,4.694,4.694,0,0,0-1.5,1.067,4.839,4.839,0,0,0-.986,1.583,5.351,5.351,0,0,0-.352,1.95,5.283,5.283,0,0,0,.352,1.935,4.849,4.849,0,0,0,.986,1.578,4.594,4.594,0,0,0,3.411,1.45,4.866,4.866,0,0,0,1.578-.255,5.188,5.188,0,0,0,1.384-.715.454.454,0,0,1,.168-.082q.087-.02.148-.031a.5.5,0,0,1,.358.225l1.011,1.705a.51.51,0,0,1,.061.225.328.328,0,0,1-.087.235,1.419,1.419,0,0,1-.2.174,8.109,8.109,0,0,1-2.068,1,7.66,7.66,0,0,1-2.333.352,7.728,7.728,0,0,1-3.942-1.062,7.911,7.911,0,0,1-2.8-2.793,7.625,7.625,0,0,1-.786-1.858,7.832,7.832,0,0,1,.786-6.025,7.9,7.9,0,0,1,1.22-1.588,7.608,7.608,0,0,1,1.578-1.22,8.009,8.009,0,0,1,1.864-.786,7.9,7.9,0,0,1,4.386.061A7.926,7.926,0,0,1,266.074,308.321Z" transform="translate(-86.405)" fill="#198080"/>
    <path id="Path_20" data-name="Path 20" d="M335.729,320.626l-1.011-1.705a.5.5,0,0,0-.357-.225c-.041.007-.09.017-.148.031a.454.454,0,0,0-.169.082,5.184,5.184,0,0,1-1.384.715,4.866,4.866,0,0,1-1.578.255,4.593,4.593,0,0,1-3.411-1.45,4.849,4.849,0,0,1-.986-1.578q-.091-.233-.158-.475h6.079a.5.5,0,0,0,.245-.061.8.8,0,0,0,.2-.153.648.648,0,0,0,.133-.209.627.627,0,0,0,.046-.23v-1.7a.56.56,0,0,0-.179-.449.659.659,0,0,0-.444-.153h-6.074q.066-.234.153-.459a4.839,4.839,0,0,1,.986-1.583,4.692,4.692,0,0,1,1.5-1.067,4.576,4.576,0,0,1,1.91-.393,4.729,4.729,0,0,1,1.562.255,5.416,5.416,0,0,1,1.379.715.69.69,0,0,0,.164.077.487.487,0,0,0,.143.025.475.475,0,0,0,.368-.235l.991-1.685a.525.525,0,0,0,.061-.235.381.381,0,0,0-.082-.245.733.733,0,0,0-.2-.173,7.924,7.924,0,0,0-2.053-.986,7.9,7.9,0,0,0-4.386-.061,8.009,8.009,0,0,0-1.864.786,7.6,7.6,0,0,0-1.578,1.22,7.913,7.913,0,0,0-1.22,1.588,7.9,7.9,0,0,0-.786,6.025,7.623,7.623,0,0,0,.786,1.858,7.913,7.913,0,0,0,2.8,2.793,7.867,7.867,0,0,0,6.275.71,8.114,8.114,0,0,0,2.068-1,1.421,1.421,0,0,0,.2-.174.328.328,0,0,0,.087-.235A.509.509,0,0,0,335.729,320.626Z" transform="translate(-143.099)" fill="#198080"/>
  </g>
</svg>
