<svg xmlns="http://www.w3.org/2000/svg" width="7.648" height="11.52" viewBox="0 0 7.648 11.52">
  <g id="Group_248" data-name="Group 248" transform="translate(-1482.218 -2865.406)">
    <g id="Group_247" data-name="Group 247">
      <path id="Path_192" data-name="Path 192" d="M1487.874,2865.618a1.469,1.469,0,0,1,1.709,2l-.428.712-2.493-1.5.428-.712A1.461,1.461,0,0,1,1487.874,2865.618Zm-5.488,8.334.071,2.707,2.422-1.211,3.956-6.589-2.494-1.5Z" fill="#b2b2b2"/>
      <path id="Path_193" data-name="Path 193" d="M1482.3,2876.926l-.078-3.019,4.066-6.774,2.78,1.669-4.066,6.774Zm.259-2.93.062,2.4,2.144-1.072,3.844-6.4-2.206-1.324Zm6.658-5.442-2.78-1.668.513-.856a1.637,1.637,0,0,1,.887-.575,1.669,1.669,0,0,1,.4-.049,1.636,1.636,0,0,1,1.506,2.272Zm-2.322-1.783,2.207,1.324.341-.568a1.284,1.284,0,0,0,.053-.8,1.3,1.3,0,0,0-1.578-.947,1.282,1.282,0,0,0-.694.442Z" fill="#b2b2b2"/>
    </g>
  </g>
</svg>
