<svg xmlns="http://www.w3.org/2000/svg" width="106.85" height="140.447" viewBox="0 0 106.85 140.447">
  <g id="cactus" transform="translate(-56.214)">
    <path id="Path_1586" data-name="Path 1586" d="M150.82,14.362a12.259,12.259,0,0,0-12.245,12.245V49.8a13.952,13.952,0,0,1-11.69,13.749v-46.3a17.246,17.246,0,1,0-34.492,0V83.553A13.952,13.952,0,0,1,80.7,69.8V46.613a12.245,12.245,0,0,0-24.489,0V69.8A38.47,38.47,0,0,0,92.393,108.16v27.8H85.67a2.241,2.241,0,0,0,0,4.482h47.939a2.241,2.241,0,0,0,0-4.482h-6.724V88.153A38.47,38.47,0,0,0,163.064,49.8V26.606A12.258,12.258,0,0,0,150.82,14.362ZM158.582,49.8a33.976,33.976,0,0,1-33.938,33.938,2.241,2.241,0,0,0-2.241,2.241v49.988H96.876V105.983a2.241,2.241,0,0,0-2.241-2.241A33.976,33.976,0,0,1,60.7,69.8V46.613a7.762,7.762,0,0,1,15.524,0V69.8A18.437,18.437,0,0,0,92.394,88.077v3.877a2.241,2.241,0,0,0,4.482,0V17.246a12.763,12.763,0,1,1,25.527,0v54.7a2.241,2.241,0,1,0,4.482,0V68.07A18.437,18.437,0,0,0,143.058,49.8V26.606a7.762,7.762,0,0,1,15.524,0V49.8Z" transform="translate(0)" fill="#e3e3e3"/>
    <path id="Path_1587" data-name="Path 1587" d="M229.741,400.013a2.241,2.241,0,0,0-2.241,2.241v4.482a2.241,2.241,0,1,0,4.482,0v-4.482A2.241,2.241,0,0,0,229.741,400.013Z" transform="translate(-120.102 -280.48)" fill="#e3e3e3"/>
    <path id="Path_1588" data-name="Path 1588" d="M249.954,150.013a2.241,2.241,0,0,0-2.241,2.241v4.482a2.241,2.241,0,1,0,4.482,0v-4.482A2.241,2.241,0,0,0,249.954,150.013Z" transform="translate(-134.275 -105.186)" fill="#e3e3e3"/>
    <path id="Path_1589" data-name="Path 1589" d="M209.528,100.013a2.241,2.241,0,0,0-2.241,2.241v4.482a2.241,2.241,0,1,0,4.482,0v-4.482A2.241,2.241,0,0,0,209.528,100.013Z" transform="translate(-105.929 -70.127)" fill="#e3e3e3"/>
    <path id="Path_1590" data-name="Path 1590" d="M367.551,115.013a2.241,2.241,0,0,0-2.241,2.241v4.482a2.241,2.241,0,1,0,4.482,0v-4.482A2.241,2.241,0,0,0,367.551,115.013Z" transform="translate(-216.731 -80.644)" fill="#e3e3e3"/>
    <path id="Path_1591" data-name="Path 1591" d="M91.931,205.013a2.241,2.241,0,0,0-2.241,2.241v4.482a2.241,2.241,0,1,0,4.482,0v-4.482A2.241,2.241,0,0,0,91.931,205.013Z" transform="translate(-23.473 -143.75)" fill="#e3e3e3"/>
  </g>
</svg>
