<svg xmlns="http://www.w3.org/2000/svg" width="25.046" height="22.96" viewBox="0 0 25.046 22.96">
  <g id="Group_1641" data-name="Group 1641" transform="translate(-178.977 -723.276)">
    <path id="Path_6" data-name="Path 6" d="M181.8,738.877l-.036-.12a3.791,3.791,0,0,1-.181-1.131V730.51l-2.532,8.452a2.372,2.372,0,0,0,1.662,2.875l16.137,4.321a2.365,2.365,0,0,0,.6.078,2.327,2.327,0,0,0,2.255-1.707l.94-2.99H185.5A3.907,3.907,0,0,1,181.8,738.877Z" fill="#f0f0f0"/>
    <circle id="Ellipse_2" data-name="Ellipse 2" cx="2.087" cy="2.087" r="2.087" transform="translate(186.282 726.407)" fill="#f0f0f0"/>
    <path id="Path_7" data-name="Path 7" d="M201.414,723.276H185.76a2.613,2.613,0,0,0-2.609,2.609v11.48a2.613,2.613,0,0,0,2.609,2.609h15.654a2.613,2.613,0,0,0,2.609-2.609v-11.48A2.613,2.613,0,0,0,201.414,723.276Zm.522,10.018-3.3-3.847a1.867,1.867,0,0,0-1.4-.642,1.827,1.827,0,0,0-1.4.658l-3.876,4.653-1.262-1.26a1.832,1.832,0,0,0-2.589,0l-2.88,2.88v-9.851a.522.522,0,0,1,.522-.522h15.654a.522.522,0,0,1,.522.522Z" fill="#f0f0f0"/>
  </g>
</svg>
