<svg id="Group_2285" data-name="Group 2285" xmlns="http://www.w3.org/2000/svg" width="20.219" height="15.576" viewBox="0 0 20.219 15.576">
  <g id="Group_74" data-name="Group 74">
    <path id="Path_68" data-name="Path 68" d="M3993.333,2669.146h-17.319a1.288,1.288,0,0,1-1.287-1.287v-12.676a1.615,1.615,0,0,1,1.614-1.614h16.992a1.615,1.615,0,0,1,1.613,1.614v12.349A1.615,1.615,0,0,1,3993.333,2669.146Zm-17.282-1.323h17.282a.29.29,0,0,0,.289-.29v-12.349a.29.29,0,0,0-.289-.29h-16.992a.29.29,0,0,0-.29.29Z" transform="translate(-3974.727 -2653.57)" fill="gray"/>
  </g>
  <g id="Group_78" data-name="Group 78" transform="translate(3.792 4.759)">
    <g id="Group_75" data-name="Group 75">
      <path id="Path_69" data-name="Path 69" d="M3983.464,2663.206a5,5,0,0,1-2.386.571,3.029,3.029,0,1,1,0-6.059,3.286,3.286,0,0,1,2.271.724l-.756.766a2.182,2.182,0,0,0-1.507-.561,1.955,1.955,0,0,0-1.979,2.059,1.979,1.979,0,0,0,1.979,2.141,2.767,2.767,0,0,0,1.351-.3v-1.36h-1.18v-.929h2.207Z" transform="translate(-3978.033 -2657.719)" fill="gray"/>
    </g>
    <g id="Group_76" data-name="Group 76" transform="translate(6.623 0.147)">
      <path id="Path_70" data-name="Path 70" d="M3983.807,2657.847h1.026v5.765h-1.026Z" transform="translate(-3983.807 -2657.847)" fill="gray"/>
    </g>
    <g id="Group_77" data-name="Group 77" transform="translate(8.912 0.147)">
      <path id="Path_71" data-name="Path 71" d="M3985.8,2657.847h3.722v.927h-2.7v1.516h2.541v.927h-2.541v2.4H3985.8Z" transform="translate(-3985.803 -2657.847)" fill="gray"/>
    </g>
  </g>
</svg>
