<svg xmlns="http://www.w3.org/2000/svg" width="103.147" height="89.408" viewBox="0 0 103.147 89.408">
  <g id="Group_2119" data-name="Group 2119" transform="translate(-70.077 -360.527)">
    <path id="Path_1514" data-name="Path 1514" d="M2718.1,430.056c21.3-3.475,36.288-20.626,33.414-38.231-1.331-8.153-6.433-15.227-14.363-19.922a44.536,44.536,0,0,0-27.041-5.47.961.961,0,0,1-.9-.763l-.647-7.208a2.127,2.127,0,0,0-1.19-1.722,2.1,2.1,0,0,0-1.269-.186,2.134,2.134,0,0,0-.825.321c-.9.589-22.072,14.633-29.01,31.979a28.036,28.036,0,0,0-2.3,12.908c.01.176.023.345.034.523l.007.058c.016.222.037.44.06.656.055.531.12,1,.191,1.435C2677.131,422.039,2696.8,433.533,2718.1,430.056Z" transform="translate(-2603.834 4)" fill="#e3e3e3"/>
    <g id="Group_2112" data-name="Group 2112" transform="translate(95.315 375.737)">
      <path id="Path_1449" data-name="Path 1449" d="M3223.822,284.145c-21.063,0-38.2,14.166-38.2,31.577,0,8.064,3.8,15.681,10.705,21.452a43.464,43.464,0,0,0,25.191,9.522.939.939,0,0,1,.751.878l-.51,7.045a2.076,2.076,0,0,0,.875,1.846,2.054,2.054,0,0,0,1.194.378,2.091,2.091,0,0,0,.845-.18c.958-.426,23.565-10.627,32.978-26.247a27.379,27.379,0,0,0,4.241-12.074c.018-.171.031-.336.049-.509l0-.058c.02-.216.034-.429.045-.642.031-.52.042-.978.042-1.412C3262.027,298.311,3244.89,284.145,3223.822,284.145Z" transform="translate(-3185.619 -284.145)" fill="#fff" stroke="#e3e3e3" stroke-linecap="round" stroke-linejoin="round" stroke-width="3"/>
      <circle id="Ellipse_649" data-name="Ellipse 649" cx="2.92" cy="2.92" r="2.92" transform="translate(29.808 15.485)" fill="#198080"/>
      <circle id="Ellipse_650" data-name="Ellipse 650" cx="2.92" cy="2.92" r="2.92" transform="translate(41.565 15.485)" fill="#198080"/>
      <path id="Path_1450" data-name="Path 1450" d="M3225.2,323.108a31.911,31.911,0,0,1,25.811.466" transform="translate(-3198.267 -295.798)" fill="none" stroke="#e3e3e3" stroke-linecap="round" stroke-linejoin="round" stroke-width="3"/>
      <path id="Path_1451" data-name="Path 1451" d="M3222,327.467s1.992-3.88-3.161-6.069" transform="translate(-3196.236 -296.05)" fill="none" stroke="#e3e3e3" stroke-linecap="round" stroke-linejoin="round" stroke-width="3"/>
    </g>
  </g>
</svg>
