<svg xmlns="http://www.w3.org/2000/svg" width="142.289" height="48.28" viewBox="0 0 142.289 48.28">
  <g id="Group_2104" data-name="Group 2104" transform="translate(-113.855 -125.335)">
    <g id="Group_2100" data-name="Group 2100" transform="translate(113.855 125.335)">
      <path id="Path_25" data-name="Path 25" d="M578.871,157.7a24.606,24.606,0,0,0,1.6-3.1,6.133,6.133,0,0,0,0-4.827,24.425,24.425,0,0,0-1.6-3.1,23.8,23.8,0,0,0-40.726,0,24.529,24.529,0,0,0-1.6,3.1,6.134,6.134,0,0,0,0,4.827,24.623,24.623,0,0,0,1.6,3.1,24.052,24.052,0,0,0,9.412,8.8q-.688-.32-1.352-.665a24.158,24.158,0,0,0-6.694,5.858c-1.34,1.673.229,4.4,1.927,3.355l3.147-1.943a1.717,1.717,0,0,1,2.452.817l2.1,3.913a10.7,10.7,0,0,0,18.86,0l2.1-3.913a1.716,1.716,0,0,1,2.452-.817l2.612,1.612c1.7,1.049,3.252-1.755,1.849-3.348a27.211,27.211,0,0,0-6.523-5.437A24.091,24.091,0,0,0,578.871,157.7Zm-17.527,7.82h0a18.35,18.35,0,0,1-5.671,0h0a20.445,20.445,0,0,1-14.925-10.165,6.4,6.4,0,0,1-.011-6.31,20.379,20.379,0,0,1,35.543,0,6.4,6.4,0,0,1-.011,6.31A20.444,20.444,0,0,1,561.344,165.518Z" transform="translate(-536.046 -135.202)" fill="#198080"/>
      <path id="Path_26" data-name="Path 26" d="M565.234,149.264c-4.175,0-6.468,2.816-6.468,7.176v1.116c0,3.764,2.535,7.97,6.468,7.97s6.469-4.206,6.469-7.97V156.44C571.7,152.08,569.411,149.264,565.234,149.264Z" transform="translate(-543.217 -139.64)" fill="#198080"/>
    </g>
    <g id="Group_2101" data-name="Group 2101" transform="translate(172.725 139.411)">
      <path id="Union_1" data-name="Union 1" d="M1.058,25.665A.935.935,0,0,1,0,24.607V8.557a1.139,1.139,0,0,1,.264-.767.968.968,0,0,1,.777-.309H3.969a1.1,1.1,0,0,1,.4.079,1.123,1.123,0,0,1,.361.23,1.36,1.36,0,0,1,.265.344.869.869,0,0,1,.106.424v16.05q0,1.059-1.111,1.058Zm0-20.832Q0,4.833,0,3.7V1.062A.929.929,0,0,1,1.041,0H4A1.154,1.154,0,0,1,4.8.265a1.011,1.011,0,0,1,.3.8V3.7a1.238,1.238,0,0,1-.282.77.949.949,0,0,1-.794.363Z" transform="translate(27.529 0.388)" fill="#198080" stroke="rgba(0,0,0,0)" stroke-miterlimit="10" stroke-width="1"/>
      <path id="Path_29" data-name="Path 29" d="M644.677,169.461a12.846,12.846,0,0,1-.477,3.519,13.1,13.1,0,0,1-1.341,3.14,12.919,12.919,0,0,1-4.766,4.657,13.648,13.648,0,0,1-6.744,1.755h-8.473a1.114,1.114,0,0,1-.565-.141.632.632,0,0,1-.247-.6V157.166a.725.725,0,0,1,.812-.829h8.473a13.435,13.435,0,0,1,5.234,1.014,13.234,13.234,0,0,1,4.228,2.787,13.034,13.034,0,0,1,2.833,4.163A12.871,12.871,0,0,1,644.677,169.461Zm-17.515-8.291V177.7h1.675q1.323,0,2.646-.053a8.445,8.445,0,0,0,3.228-.715,8.241,8.241,0,0,0,2.566-1.775,8.027,8.027,0,0,0,1.693-2.6,8.4,8.4,0,0,0,.609-3.2,8.206,8.206,0,0,0-.662-3.328,7.8,7.8,0,0,0-1.808-2.587,8.155,8.155,0,0,0-2.681-1.669,8.994,8.994,0,0,0-3.263-.592Z" transform="translate(-622.064 -155.949)" fill="#198080"/>
      <path id="Path_30" data-name="Path 30" d="M698.195,158.063a1.247,1.247,0,0,1,.352.3.654.654,0,0,1,.141.423.906.906,0,0,1-.105.406l-1.711,2.911a.823.823,0,0,1-.635.406.843.843,0,0,1-.247-.044,1.176,1.176,0,0,1-.282-.132,9.365,9.365,0,0,0-2.382-1.235,8.162,8.162,0,0,0-2.7-.441,7.9,7.9,0,0,0-3.3.68,8.1,8.1,0,0,0-2.593,1.843,8.368,8.368,0,0,0-1.7,2.734,9.24,9.24,0,0,0-.608,3.369,9.119,9.119,0,0,0,.608,3.343,8.385,8.385,0,0,0,1.7,2.725,7.932,7.932,0,0,0,5.892,2.5,8.4,8.4,0,0,0,2.725-.441,8.958,8.958,0,0,0,2.39-1.235.785.785,0,0,1,.291-.142c.1-.023.186-.041.256-.053a.855.855,0,0,1,.617.388l1.747,2.946a.883.883,0,0,1,.106.388.567.567,0,0,1-.151.406,2.421,2.421,0,0,1-.344.3,13.978,13.978,0,0,1-3.572,1.72,13.223,13.223,0,0,1-4.031.609,13.34,13.34,0,0,1-6.808-1.835,13.677,13.677,0,0,1-4.834-4.824,13.187,13.187,0,0,1-1.358-3.21,13.536,13.536,0,0,1,1.358-10.407,13.66,13.66,0,0,1,2.109-2.743,13.165,13.165,0,0,1,2.725-2.108,13.846,13.846,0,0,1,3.219-1.358,13.64,13.64,0,0,1,7.576.105A13.675,13.675,0,0,1,698.195,158.063Z" transform="translate(-639.461 -155.77)" fill="#198080"/>
      <path id="Path_31" data-name="Path 31" d="M733.9,179.318l-1.747-2.946a.855.855,0,0,0-.617-.388c-.07.012-.156.029-.256.053a.785.785,0,0,0-.291.142,8.959,8.959,0,0,1-2.39,1.235,8.4,8.4,0,0,1-2.725.441,7.932,7.932,0,0,1-5.892-2.5,8.383,8.383,0,0,1-1.7-2.725c-.1-.268-.2-.542-.273-.82h10.5a.872.872,0,0,0,.424-.106,1.381,1.381,0,0,0,.344-.264,1.124,1.124,0,0,0,.23-.362,1.09,1.09,0,0,0,.079-.4v-2.928a.964.964,0,0,0-.309-.776,1.136,1.136,0,0,0-.767-.265H718.015q.113-.4.264-.794a8.366,8.366,0,0,1,1.7-2.734,8.1,8.1,0,0,1,2.593-1.843,7.9,7.9,0,0,1,3.3-.68,8.159,8.159,0,0,1,2.7.441,9.364,9.364,0,0,1,2.382,1.235,1.176,1.176,0,0,0,.282.132.844.844,0,0,0,.247.044.823.823,0,0,0,.635-.406l1.711-2.911a.9.9,0,0,0,.105-.406.654.654,0,0,0-.141-.423,1.246,1.246,0,0,0-.352-.3,13.674,13.674,0,0,0-3.546-1.7,13.64,13.64,0,0,0-7.576-.105,13.848,13.848,0,0,0-3.219,1.358,13.165,13.165,0,0,0-2.725,2.108,13.66,13.66,0,0,0-2.109,2.743,13.646,13.646,0,0,0-1.358,10.407,13.189,13.189,0,0,0,1.358,3.21,13.677,13.677,0,0,0,4.834,4.824,13.582,13.582,0,0,0,10.839,1.226,13.976,13.976,0,0,0,3.572-1.72,2.469,2.469,0,0,0,.344-.3.569.569,0,0,0,.15-.406A.884.884,0,0,0,733.9,179.318Z" transform="translate(-650.586 -155.77)" fill="#198080"/>
    </g>
  </g>
</svg>
