<svg id="paint-bucket" xmlns="http://www.w3.org/2000/svg" width="14.513" height="14.511" viewBox="0 0 14.513 14.511">
  <path id="Path_1384" data-name="Path 1384" d="M5.417.654a3.091,3.091,0,0,1,2.753.364l0-.019,2.18.412a3.884,3.884,0,0,1,3.215,3.338,3.734,3.734,0,0,1-.121,1.384l.371.369a2.96,2.96,0,0,1,.542,2.953,7.7,7.7,0,0,1-2.045,3.359,7.7,7.7,0,0,1-3.359,2.045A2.993,2.993,0,0,1,6,14.317L4.141,12.483v.373a2.119,2.119,0,0,1-2.447,2.125A2.148,2.148,0,0,1,0,12.765V7.226A6.389,6.389,0,0,1,2.058,2.7,7.7,7.7,0,0,1,5.417.654Zm7.3,4.177a3.032,3.032,0,0,0-2.527-2.584l-.817-.155,3.344,3.32A2.961,2.961,0,0,0,12.722,4.83ZM6.6,13.713l0,0c.977.978,3.317.289,5.109-1.5a6.844,6.844,0,0,0,1.824-2.974,2.165,2.165,0,0,0-.32-2.134l-.133-.132a3.609,3.609,0,0,1-2.9,1.762,1.277,1.277,0,1,1,0-.852,2.752,2.752,0,0,0,2.276-1.535L9.064,2.978a4.176,4.176,0,0,1-.153,1.13A7.717,7.717,0,0,1,6.867,7.423L4.518,9.772a1.288,1.288,0,0,0-.377.9v.616Zm2.679-5.7a.425.425,0,1,0,0,.6A.425.425,0,0,0,9.281,8.014ZM2.019,5.631H7.255C8.277,4.123,8.533,2.562,7.768,1.8c-.978-.977-3.317-.289-5.11,1.5A6.481,6.481,0,0,0,1.045,5.88,1.988,1.988,0,0,1,2.019,5.631Zm0,0" transform="translate(-0.001 -0.5)" fill="#198080"/>
</svg>
