<svg xmlns="http://www.w3.org/2000/svg" xmlns:xlink="http://www.w3.org/1999/xlink" width="131.141" height="108.217" viewBox="0 0 131.141 108.217">
  <defs>
    <linearGradient id="linear-gradient" x1="0.5" x2="0.5" y2="1" gradientUnits="objectBoundingBox">
      <stop offset="0" stop-color="#34b684"/>
      <stop offset="1" stop-color="#198080"/>
    </linearGradient>
  </defs>
  <g id="Group_2071" data-name="Group 2071" transform="translate(-109.398 -264.221)">
    <g id="Group_2070" data-name="Group 2070" transform="translate(2.448 -7.59)">
      <g id="Group_2067" data-name="Group 2067" transform="matrix(0.921, 0.391, -0.391, 0.921, 167.075, 275.456)">
        <path id="Path_25" data-name="Path 25" d="M69.293,36.4a39.776,39.776,0,0,0,2.6-5.009,9.923,9.923,0,0,0,0-7.81,39.553,39.553,0,0,0-2.6-5.009,38.512,38.512,0,0,0-65.9,0A39.7,39.7,0,0,0,.8,23.58a9.927,9.927,0,0,0,0,7.81A39.839,39.839,0,0,0,3.4,36.4,38.918,38.918,0,0,0,18.626,50.644q-1.113-.518-2.188-1.075A39.09,39.09,0,0,0,5.607,59.048c-2.168,2.706.37,7.125,3.118,5.428l5.092-3.144a2.778,2.778,0,0,1,3.968,1.322l3.4,6.332a17.312,17.312,0,0,0,30.516,0l3.4-6.332a2.778,2.778,0,0,1,3.968-1.322l4.226,2.608c2.752,1.7,5.262-2.839,2.991-5.417a44.027,44.027,0,0,0-10.554-8.8A38.981,38.981,0,0,0,69.293,36.4ZM40.933,49.053h0a32.984,32.984,0,0,1-4.588.357,32.956,32.956,0,0,1-4.587-.357h0A33.082,33.082,0,0,1,7.609,32.605,10.352,10.352,0,0,1,7.591,22.4a32.974,32.974,0,0,1,57.509,0,10.358,10.358,0,0,1-.018,10.21A33.079,33.079,0,0,1,40.933,49.053Z" fill="url(#linear-gradient)"/>
        <path id="Path_26" data-name="Path 26" d="M10.466,0C3.711,0,0,4.557,0,11.611v1.8c0,6.091,4.1,12.9,10.466,12.9s10.468-6.806,10.468-12.9v-1.8C20.934,4.557,17.224,0,10.466,0Z" transform="translate(25.159 15.572)" fill="#34b684"/>
      </g>
      <path id="Path_1484" data-name="Path 1484" d="M69.293,36.4a39.776,39.776,0,0,0,2.6-5.009,9.923,9.923,0,0,0,0-7.81,39.553,39.553,0,0,0-2.6-5.009,38.512,38.512,0,0,0-65.9,0A39.7,39.7,0,0,0,.8,23.58a9.927,9.927,0,0,0,0,7.81A39.839,39.839,0,0,0,3.4,36.4,38.918,38.918,0,0,0,18.626,50.644q-1.113-.518-2.188-1.075A39.09,39.09,0,0,0,5.607,59.048c-2.168,2.706.37,7.125,3.118,5.428l5.092-3.144a2.778,2.778,0,0,1,3.968,1.322l3.4,6.332a17.312,17.312,0,0,0,30.516,0l3.4-6.332a2.778,2.778,0,0,1,3.968-1.322l4.226,2.608c2.752,1.7,5.262-2.839,2.991-5.417a44.027,44.027,0,0,0-10.554-8.8A38.981,38.981,0,0,0,69.293,36.4Z" transform="matrix(0.921, 0.391, -0.391, 0.921, 167.2, 275.765)" fill="none" stroke="#198080" stroke-width="6"/>
    </g>
    <path id="Path_1490" data-name="Path 1490" d="M144.477,8H124.22A4.225,4.225,0,0,0,120,12.22V56.11a4.225,4.225,0,0,0,4.22,4.22h20.257a4.225,4.225,0,0,0,4.22-4.22V12.22A4.225,4.225,0,0,0,144.477,8Z" transform="matrix(0.891, -0.454, 0.454, 0.891, 1.535, 357.333)" fill="#fdfdfd"/>
    <path id="Path_1489" data-name="Path 1489" d="M144.477,8H124.22A4.225,4.225,0,0,0,120,12.22V56.11a4.225,4.225,0,0,0,4.22,4.22h20.257a4.225,4.225,0,0,0,4.22-4.22V12.22A4.225,4.225,0,0,0,144.477,8Z" transform="matrix(0.891, -0.454, 0.454, 0.891, 1.535, 357.333)" fill="none" stroke="#198080" stroke-width="4"/>
  </g>
</svg>
