<svg xmlns="http://www.w3.org/2000/svg" width="12.247" height="11.858" viewBox="0 0 12.247 11.858">
  <g id="Group_1562" data-name="Group 1562" transform="translate(-2795.473 -676.544)">
    <path id="Path_1329" data-name="Path 1329" d="M2807.047,688.4h-10.9a.673.673,0,0,1-.673-.673c0-1.906,3.043-3.346,4.33-3.715a4.514,4.514,0,0,1-.822-1.548,1.436,1.436,0,0,1-.492-.687,1.8,1.8,0,0,1,.089-1.516,3.679,3.679,0,0,1,.684-2.826,3.5,3.5,0,0,1,4.67,0,3.679,3.679,0,0,1,.684,2.826,1.808,1.808,0,0,1,.089,1.516,1.435,1.435,0,0,1-.492.687,4.51,4.51,0,0,1-.822,1.548c1.286.368,4.329,1.809,4.329,3.715A.673.673,0,0,1,2807.047,688.4Zm-9.9-1.346h8.89a7.363,7.363,0,0,0-3.2-1.792c-.528-.084-.835-.61-.842-1.442a.672.672,0,0,1,.2-.484,3.1,3.1,0,0,0,.772-1.465.675.675,0,0,1,.466-.534.589.589,0,0,0,.028-.38.609.609,0,0,1-.215-.521c0-.044.008-.111.017-.2a2.629,2.629,0,0,0-.334-1.906,2.213,2.213,0,0,0-2.667,0,2.64,2.64,0,0,0-.334,1.906c.009.084.016.151.018.2a.672.672,0,0,1-.237.544.7.7,0,0,0,.05.356.674.674,0,0,1,.465.534,3.094,3.094,0,0,0,.772,1.465.678.678,0,0,1,.2.484c-.007.832-.314,1.358-.843,1.442A7.36,7.36,0,0,0,2797.152,687.056Z" fill="#fff"/>
  </g>
</svg>
