<svg id="Group_80" data-name="Group 80" xmlns="http://www.w3.org/2000/svg" width="24.001" height="18.332" viewBox="0 0 24.001 18.332">
  <path id="Path_72" data-name="Path 72" d="M4094.436,2670.7h-14.174a4.92,4.92,0,0,1-4.914-4.914v-8.5a4.92,4.92,0,0,1,4.914-4.914h14.174a4.919,4.919,0,0,1,4.914,4.914v8.5A4.919,4.919,0,0,1,4094.436,2670.7Zm-14.174-17.008a3.594,3.594,0,0,0-3.59,3.59v8.5a3.594,3.594,0,0,0,3.59,3.59h14.174a3.594,3.594,0,0,0,3.59-3.59v-8.5a3.594,3.594,0,0,0-3.59-3.59Zm5.15,13.21a1.561,1.561,0,0,1-1.561-1.556v-7.623a1.561,1.561,0,0,1,1.561-1.557,1.532,1.532,0,0,1,.967.343l4.763,3.811a1.555,1.555,0,0,1,0,2.429l-4.763,3.811A1.532,1.532,0,0,1,4085.412,2666.9Zm0-9.413a.234.234,0,0,0-.237.233v7.623a.233.233,0,0,0,.237.233.217.217,0,0,0,.14-.053l4.764-3.812a.23.23,0,0,0,0-.36l-4.764-3.812A.216.216,0,0,0,4085.412,2657.49Z" transform="translate(-4075.348 -2652.369)" fill="gray"/>
</svg>
