<svg xmlns="http://www.w3.org/2000/svg" width="9.352" height="9.351" viewBox="0 0 9.352 9.351">
  <g id="Group_2302" data-name="Group 2302" transform="translate(-58.819 -689.505)">
    <path id="Path_20" data-name="Path 20" d="M63.495,689.505a4.676,4.676,0,1,0,4.676,4.676A4.681,4.681,0,0,0,63.495,689.505Zm0,8.55a3.874,3.874,0,1,1,3.874-3.874A3.879,3.879,0,0,1,63.495,698.055Z" transform="translate(0)" fill="#b2b2b2"/>
    <path id="Path_21" data-name="Path 21" d="M72.057,699.125a.4.4,0,0,0-.567,0l-1.242,1.243-1.243-1.243a.4.4,0,0,0-.567.567l1.243,1.243-1.243,1.243a.4.4,0,1,0,.567.567l1.243-1.243,1.242,1.243a.4.4,0,0,0,.567-.567l-1.243-1.243,1.243-1.243A.4.4,0,0,0,72.057,699.125Z" transform="translate(-6.753 -6.753)" fill="#b2b2b2"/>
  </g>
</svg>
