<svg xmlns="http://www.w3.org/2000/svg" width="27.967" height="27.967" viewBox="0 0 27.967 27.967">
  <g id="Group_1659" data-name="Group 1659" transform="translate(-307.106 -743.893)">
    <path id="Path_1179" data-name="Path 1179" d="M321.09,1565.893a13.984,13.984,0,1,0,13.984,13.984A14,14,0,0,0,321.09,1565.893Z" transform="translate(0 -822)" fill="#198080"/>
    <g id="double-up-arrow" transform="translate(325.501 750.338) rotate(90)">
      <path id="Path_1368" data-name="Path 1368" d="M1.723,7.7A1.71,1.71,0,0,0,2.81,7.316l4.137-3.37,4.177,3.4A1.723,1.723,0,1,0,13.3,4.678L8.035.388a1.722,1.722,0,0,0-2.177,0L.635,4.645A1.722,1.722,0,0,0,1.723,7.7Z" transform="translate(0 0)" fill="#f6f6f6"/>
    </g>
  </g>
</svg>
