<?xml version="1.0" encoding="UTF-8" standalone="no"?><!DOCTYPE svg PUBLIC "-//W3C//DTD SVG 1.1//EN" "http://www.w3.org/Graphics/SVG/1.1/DTD/svg11.dtd"><svg width="100%" height="100%" viewBox="0 0 591 591" version="1.1" xmlns="http://www.w3.org/2000/svg" xmlns:xlink="http://www.w3.org/1999/xlink" xml:space="preserve" xmlns:serif="http://www.serif.com/" style="fill-rule:evenodd;clip-rule:evenodd;stroke-linejoin:round;stroke-miterlimit:2;"><rect id="Sent-NOT-Delivered" serif:id="Sent NOT Delivered" x="0" y="0" width="590.551" height="590.551" style="fill:none;"/><g id="double-up-arrow-4"><path id="Path_1368-4" d="M251.445,273.296c2.496,2.506 5.788,4.068 9.309,4.415l47.371,4.833l4.884,47.831c0.476,3.279 2,6.319 4.343,8.662c5.963,5.963 15.776,5.963 21.739,0c3.098,-3.098 4.728,-7.377 4.476,-11.752l-6.158,-60.3c-0.737,-7.23 -6.505,-12.998 -13.735,-13.734l-59.8,-6.128c-4.599,-0.474 -9.174,1.152 -12.444,4.421c-5.962,5.963 -5.962,15.776 0,21.738c0.005,0.005 0.01,0.01 0.015,0.014Z" style="fill:#b7b7b6;fill-rule:nonzero;"/></g></svg>