<svg xmlns="http://www.w3.org/2000/svg" width="19.657" height="19.657" viewBox="0 0 19.657 19.657">
  <g id="settings" transform="translate(0.5 0.5)">
    <path id="Path_1501" data-name="Path 1501" d="M9.914,18.657H8.743a1.719,1.719,0,0,1-1.718-1.717v-.4a7.532,7.532,0,0,1-1.17-.485l-.281.281a1.718,1.718,0,0,1-2.429,0l-.828-.828a1.717,1.717,0,0,1,0-2.429L2.6,12.8a7.533,7.533,0,0,1-.485-1.17h-.4A1.719,1.719,0,0,1,0,9.914V8.743A1.719,1.719,0,0,1,1.718,7.025h.4A7.534,7.534,0,0,1,2.6,5.856l-.281-.281a1.718,1.718,0,0,1,0-2.429l.828-.828a1.717,1.717,0,0,1,2.429,0l.28.28a7.539,7.539,0,0,1,1.17-.485v-.4A1.719,1.719,0,0,1,8.743,0H9.914a1.719,1.719,0,0,1,1.717,1.717v.4A7.532,7.532,0,0,1,12.8,2.6l.281-.281a1.718,1.718,0,0,1,2.429,0l.828.828a1.717,1.717,0,0,1,0,2.429l-.281.281a7.532,7.532,0,0,1,.485,1.17h.4a1.719,1.719,0,0,1,1.718,1.717V9.914a1.719,1.719,0,0,1-1.718,1.717h-.4a7.534,7.534,0,0,1-.485,1.17l.281.281a1.718,1.718,0,0,1,0,2.429l-.828.828a1.717,1.717,0,0,1-2.429,0l-.28-.28a7.539,7.539,0,0,1-1.17.485v.4A1.719,1.719,0,0,1,9.914,18.657ZM6.039,14.91a6.443,6.443,0,0,0,1.67.693.547.547,0,0,1,.41.529v.807a.625.625,0,0,0,.624.624H9.914a.625.625,0,0,0,.624-.624v-.807a.547.547,0,0,1,.41-.529,6.443,6.443,0,0,0,1.67-.693.547.547,0,0,1,.665.084l.572.572a.624.624,0,0,0,.883,0l.828-.828a.624.624,0,0,0,0-.883l-.572-.572a.547.547,0,0,1-.084-.665,6.442,6.442,0,0,0,.693-1.67.547.547,0,0,1,.529-.41h.807a.625.625,0,0,0,.624-.624V8.743a.625.625,0,0,0-.624-.624h-.807a.547.547,0,0,1-.529-.41,6.443,6.443,0,0,0-.693-1.67.547.547,0,0,1,.084-.665l.572-.572a.624.624,0,0,0,0-.883l-.828-.828a.624.624,0,0,0-.883,0l-.572.572a.547.547,0,0,1-.665.084,6.443,6.443,0,0,0-1.67-.693.547.547,0,0,1-.41-.529V1.718a.625.625,0,0,0-.624-.624H8.743a.625.625,0,0,0-.624.624v.807a.547.547,0,0,1-.41.529,6.443,6.443,0,0,0-1.67.693.547.547,0,0,1-.665-.084L4.8,3.091a.624.624,0,0,0-.883,0l-.828.828a.624.624,0,0,0,0,.883l.572.572a.547.547,0,0,1,.084.665,6.442,6.442,0,0,0-.693,1.67.547.547,0,0,1-.529.41H1.718a.625.625,0,0,0-.624.624V9.914a.625.625,0,0,0,.624.624h.807a.547.547,0,0,1,.529.41,6.443,6.443,0,0,0,.693,1.67.547.547,0,0,1-.084.665l-.572.572a.624.624,0,0,0,0,.883l.828.828a.624.624,0,0,0,.883,0l.572-.572a.549.549,0,0,1,.665-.084Z" fill="#9c9c9b" stroke="#9c9c9b" stroke-width="1"/>
    <path id="Path_1502" data-name="Path 1502" d="M148.659,152.719a4.059,4.059,0,1,1,4.059-4.059A4.064,4.064,0,0,1,148.659,152.719Zm0-7.025a2.966,2.966,0,1,0,2.966,2.966A2.969,2.969,0,0,0,148.659,145.693Z" transform="translate(-139.331 -139.331)" fill="#9c9c9b" stroke="#9c9c9b" stroke-width="1"/>
  </g>
</svg>
