<svg xmlns="http://www.w3.org/2000/svg" width="20.229" height="18.821" viewBox="0 0 20.229 18.821">
  <g id="upload" transform="translate(0.5 -16.75)">
    <g id="Group_2124" data-name="Group 2124" transform="translate(0 17.25)">
      <path id="Path_1517" data-name="Path 1517" d="M18.678,228.232a.549.549,0,0,0-.551.551v5.011a2.472,2.472,0,0,1-2.469,2.469H3.571A2.472,2.472,0,0,1,1.1,233.794V228.7a.551.551,0,1,0-1.1,0v5.093a3.575,3.575,0,0,0,3.571,3.571H15.658a3.575,3.575,0,0,0,3.571-3.571v-5.011A.551.551,0,0,0,18.678,228.232Z" transform="translate(0 -219.543)" fill="#9c9c9b" stroke="#9c9c9b" stroke-width="1"/>
      <path id="Path_1518" data-name="Path 1518" d="M137.263,21.694l2.563-2.563V30.309a.551.551,0,0,0,1.1,0V19.131l2.563,2.563a.555.555,0,0,0,.388.163.531.531,0,0,0,.388-.163.549.549,0,0,0,0-.779l-3.5-3.5a.557.557,0,0,0-.388-.163.534.534,0,0,0-.388.163l-3.5,3.5a.55.55,0,1,0,.775.779Z" transform="translate(-130.762 -17.25)" fill="#9c9c9b" stroke="#9c9c9b" stroke-width="1"/>
    </g>
  </g>
</svg>
