<svg xmlns="http://www.w3.org/2000/svg" width="17" height="16.313" viewBox="0 0 17 16.313">
  <g id="Group_2600" data-name="Group 2600" transform="translate(-58 -574.076)">
    <g id="favourite" transform="translate(58 574.076)">
      <path id="Path_1395" data-name="Path 1395" d="M16.923,16.458a1.472,1.472,0,0,0-1.42-1.031H11.256L9.919,11.367A1.471,1.471,0,0,0,8.5,10.34H8.494a1.472,1.472,0,0,0-1.417,1.038l-1.3,4.05H1.5a1.494,1.494,0,0,0-.875,2.7l3.465,2.5-1.334,4.05A1.472,1.472,0,0,0,3.29,26.36a1.471,1.471,0,0,0,1.757,0l3.471-2.509,3.429,2.5a1.494,1.494,0,0,0,2.3-1.663l-1.3-4.061,3.435-2.509A1.472,1.472,0,0,0,16.923,16.458Z" transform="translate(0 -10.34)" fill="#faaf3b"/>
    </g>
  </g>
</svg>
