<svg xmlns="http://www.w3.org/2000/svg" width="36" height="33" viewBox="0 0 36 33">
  <g id="Group_11" data-name="Group 11" transform="translate(-288.181 -689.166)">
    <path id="Path_17" data-name="Path 17" d="M297.181,708.666h18a2.967,2.967,0,0,0,3-2.925v-9.75a2.968,2.968,0,0,0-3-2.925h-3.054l-1.347-2.639a2.328,2.328,0,0,0-2.093-1.261h-5.013a2.332,2.332,0,0,0-2.094,1.261l-1.345,2.639h-3.054a2.968,2.968,0,0,0-3,2.925v9.75A2.967,2.967,0,0,0,297.181,708.666Zm9-13a4.551,4.551,0,1,1-4.667,4.551A4.614,4.614,0,0,1,306.181,695.666Z" fill="#f0f0f0"/>
    <path id="Path_18" data-name="Path 18" d="M322.835,705.232a1.5,1.5,0,0,0-2.508,1.648,3.657,3.657,0,0,1,.854,2.536c0,2.358-4.746,5.406-11.811,6.182a1.5,1.5,0,0,0,.162,2.992,1.543,1.543,0,0,0,.166-.009c8.391-.924,14.483-4.778,14.483-9.165A6.5,6.5,0,0,0,322.835,705.232Z" fill="#f0f0f0"/>
    <path id="Path_19" data-name="Path 19" d="M302.1,712.746a1.125,1.125,0,0,0-1.92.8v1.6c-5.252-1.115-9-3.541-9-6.1a2.286,2.286,0,0,1,.7-1.969,1.5,1.5,0,1,0-2.208-2.031,5.182,5.182,0,0,0-1.5,4c0,4.263,4.794,7.822,12,9.174v2.826a1.126,1.126,0,0,0,.694,1.04,1.137,1.137,0,0,0,.431.085,1.121,1.121,0,0,0,.8-.33l3.75-3.75a1.124,1.124,0,0,0,0-1.59Z" fill="#f0f0f0"/>
  </g>
</svg>
